<svg width="179" height="48" viewBox="0 0 179 48" fill="none" xmlns="http://www.w3.org/2000/svg">
<path d="M46.04 10V38H42.16L32.64 14.72H32.16V38H30.12V10H33L43.44 35.24H43.96V10H46.04ZM65.0284 31.12V17.08C65.0284 16.0133 64.8151 15.16 64.3884 14.52C63.9884 13.8533 63.4951 13.3467 62.9084 13C62.3484 12.6267 61.7484 12.3867 61.1084 12.28C60.4951 12.1467 59.9751 12.08 59.5484 12.08C59.1218 12.08 58.5884 12.1467 57.9484 12.28C57.3351 12.4133 56.7351 12.6667 56.1484 13.04C55.5618 13.3867 55.0551 13.8933 54.6284 14.56C54.2284 15.2 54.0284 16.0533 54.0284 17.12V31.16C54.0284 32.2267 54.2284 33.08 54.6284 33.72C55.0551 34.3333 55.5618 34.8133 56.1484 35.16C56.7351 35.48 57.3351 35.6933 57.9484 35.8C58.5884 35.88 59.1218 35.92 59.5484 35.92C59.9751 35.92 60.4951 35.8667 61.1084 35.76C61.7484 35.6533 62.3484 35.44 62.9084 35.12C63.4951 34.7733 63.9884 34.2933 64.3884 33.68C64.8151 33.04 65.0284 32.1867 65.0284 31.12ZM67.2284 31.12C67.2284 31.7067 67.1084 32.4133 66.8684 33.24C66.6551 34.0667 66.2551 34.8667 65.6684 35.64C65.0818 36.3867 64.2818 37.0267 63.2684 37.56C62.2818 38.0933 61.0284 38.36 59.5084 38.36C58.0151 38.36 56.7751 38.0933 55.7884 37.56C54.8018 37.0267 54.0151 36.3867 53.4284 35.64C52.8684 34.8667 52.4684 34.0667 52.2284 33.24C51.9884 32.4133 51.8684 31.7067 51.8684 31.12V17.12C51.8684 16.5333 51.9751 15.8133 52.1884 14.96C52.4284 14.1067 52.8418 13.2933 53.4284 12.52C54.0151 11.72 54.8018 11.04 55.7884 10.48C56.7751 9.92 58.0284 9.64 59.5484 9.64C61.0418 9.64 62.2818 9.92 63.2684 10.48C64.2551 11.04 65.0418 11.7067 65.6284 12.48C66.2151 13.2533 66.6284 14.0667 66.8684 14.92C67.1084 15.7733 67.2284 16.4933 67.2284 17.08V31.12ZM74.7697 30.48C74.7697 31.3333 74.9164 32.1067 75.2097 32.8C75.503 33.4933 75.8897 34.08 76.3697 34.56C76.8497 35.04 77.4097 35.4267 78.0497 35.72C78.6897 35.9867 79.3564 36.1333 80.0497 36.16C80.263 36.16 80.4764 36.1467 80.6897 36.12C80.9297 36.0667 81.223 35.9733 81.5697 35.84C81.943 35.7067 82.4097 35.5333 82.9697 35.32C83.5564 35.08 84.3164 34.7733 85.2497 34.4L86.1297 36.68L82.8897 37.84C82.4364 38 81.943 38.1333 81.4097 38.24C80.8764 38.3467 80.423 38.4 80.0497 38.4C79.0364 38.4 78.0764 38.2267 77.1697 37.88C76.2897 37.5067 75.503 36.9867 74.8097 36.32C74.143 35.6533 73.6097 34.8533 73.2097 33.92C72.8097 32.96 72.6097 31.88 72.6097 30.68V30.28V17.76C72.6097 16.64 72.7964 15.6 73.1697 14.64C73.5697 13.6533 74.0097 12.9067 74.4897 12.4C74.9697 11.8667 75.3564 11.48 75.6497 11.24C75.943 10.9733 76.2497 10.7467 76.5697 10.56C76.8364 10.4267 77.2364 10.24 77.7697 10C78.303 9.73333 79.0897 9.6 80.1297 9.6C80.503 9.6 80.9564 9.66667 81.4897 9.8C82.023 9.93333 82.503 10.0667 82.9297 10.2L86.0497 11.44L85.3297 13.52L81.8497 12.16C81.583 12.0533 81.303 11.96 81.0097 11.88C80.7164 11.8 80.4364 11.76 80.1697 11.76C79.4497 11.76 78.7697 11.9333 78.1297 12.28C77.4897 12.6 76.9164 13.04 76.4097 13.6C75.9297 14.16 75.543 14.8 75.2497 15.52C74.983 16.24 74.8497 16.9867 74.8497 17.76L74.7697 30.48ZM90.5506 10H92.7906V22.68H102.551V10H104.831V37.96H102.551V25.04H92.7906V37.96H90.5506V10ZM111.097 10H113.177V38H111.097V10ZM127.815 10H130.095V35.76H138.975V38H127.815V10ZM155.302 31.12V17.08C155.302 16.0133 155.089 15.16 154.662 14.52C154.262 13.8533 153.769 13.3467 153.182 13C152.622 12.6267 152.022 12.3867 151.382 12.28C150.769 12.1467 150.249 12.08 149.822 12.08C149.395 12.08 148.862 12.1467 148.222 12.28C147.609 12.4133 147.009 12.6667 146.422 13.04C145.835 13.3867 145.329 13.8933 144.902 14.56C144.502 15.2 144.302 16.0533 144.302 17.12V31.16C144.302 32.2267 144.502 33.08 144.902 33.72C145.329 34.3333 145.835 34.8133 146.422 35.16C147.009 35.48 147.609 35.6933 148.222 35.8C148.862 35.88 149.395 35.92 149.822 35.92C150.249 35.92 150.769 35.8667 151.382 35.76C152.022 35.6533 152.622 35.44 153.182 35.12C153.769 34.7733 154.262 34.2933 154.662 33.68C155.089 33.04 155.302 32.1867 155.302 31.12ZM157.502 31.12C157.502 31.7067 157.382 32.4133 157.142 33.24C156.929 34.0667 156.529 34.8667 155.942 35.64C155.355 36.3867 154.555 37.0267 153.542 37.56C152.555 38.0933 151.302 38.36 149.782 38.36C148.289 38.36 147.049 38.0933 146.062 37.56C145.075 37.0267 144.289 36.3867 143.702 35.64C143.142 34.8667 142.742 34.0667 142.502 33.24C142.262 32.4133 142.142 31.7067 142.142 31.12V17.12C142.142 16.5333 142.249 15.8133 142.462 14.96C142.702 14.1067 143.115 13.2933 143.702 12.52C144.289 11.72 145.075 11.04 146.062 10.48C147.049 9.92 148.302 9.64 149.822 9.64C151.315 9.64 152.555 9.92 153.542 10.48C154.529 11.04 155.315 11.7067 155.902 12.48C156.489 13.2533 156.902 14.0667 157.142 14.92C157.382 15.7733 157.502 16.4933 157.502 17.08V31.12ZM165.163 17.64V30.92C165.163 31.6667 165.296 32.36 165.563 33C165.856 33.64 166.243 34.2 166.723 34.68C167.203 35.16 167.75 35.5467 168.363 35.84C169.003 36.1067 169.656 36.24 170.323 36.24C170.59 36.24 170.963 36.1867 171.443 36.08C171.95 35.9733 172.71 35.6533 173.723 35.12V27.56H175.963V36.56C174.443 37.36 173.19 37.8667 172.203 38.08C171.243 38.2933 170.576 38.4 170.203 38.4C169.136 38.4 168.15 38.1867 167.243 37.76C166.363 37.3333 165.59 36.76 164.923 36.04C164.283 35.2933 163.776 34.44 163.403 33.48C163.056 32.4933 162.883 31.4533 162.883 30.36V17.64C162.99 15.1333 163.71 13.1733 165.043 11.76C166.376 10.32 168.123 9.6 170.283 9.6C170.656 9.62666 171.11 9.69333 171.643 9.8C172.176 9.90667 172.656 10.04 173.083 10.2L175.603 11.16L174.803 13.44L172.003 12.36C171.336 12.0933 170.763 11.96 170.283 11.96C169.59 11.96 168.923 12.12 168.283 12.44C167.67 12.7333 167.123 13.1467 166.643 13.68C166.19 14.1867 165.83 14.7867 165.563 15.48C165.296 16.1733 165.163 16.8933 165.163 17.64Z" fill="black"/>
<path d="M15.5 12V37L2 12V37L22.5 24.5" stroke="#55B0F2" stroke-width="3"/>
</svg>
